<svg id="visual" viewBox="0 0 900 600" width="900" height="600" xmlns="http://www.w3.org/2000/svg" xmlns:xlink="http://www.w3.org/1999/xlink" version="1.1"><path d="M0 71L10 71.5C20 72 40 73 60 86.5C80 100 100 126 120 145.5C140 165 160 178 180 171.7C200 165.3 220 139.7 240 123C260 106.3 280 98.7 300 105.7C320 112.7 340 134.3 360 126.8C380 119.3 400 82.7 420 82.5C440 82.3 460 118.7 480 154.3C500 190 520 225 540 218.7C560 212.3 580 164.7 600 161.5C620 158.3 640 199.7 660 217.5C680 235.3 700 229.7 720 199.3C740 169 760 114 780 106.3C800 98.7 820 138.3 840 141.3C860 144.3 880 110.7 890 93.8L900 77L900 0L890 0C880 0 860 0 840 0C820 0 800 0 780 0C760 0 740 0 720 0C700 0 680 0 660 0C640 0 620 0 600 0C580 0 560 0 540 0C520 0 500 0 480 0C460 0 440 0 420 0C400 0 380 0 360 0C340 0 320 0 300 0C280 0 260 0 240 0C220 0 200 0 180 0C160 0 140 0 120 0C100 0 80 0 60 0C40 0 20 0 10 0L0 0Z" fill="#e8b83c" stroke-linecap="round" stroke-linejoin="miter"></path></svg>